<svg id="visual" viewBox="0 0 960 540" width="960" height="540" xmlns="http://www.w3.org/2000/svg" xmlns:xlink="http://www.w3.org/1999/xlink" version="1.1"><rect x="0" y="0" width="960" height="540" fill="#e8f7ef"></rect><path d="M0 100L80 99C160 98 320 96 480 103.5C640 111 800 128 880 136.5L960 145L960 0L880 0C800 0 640 0 480 0C320 0 160 0 80 0L0 0Z" fill="#dcf9e9"></path><path d="M0 83L80 86.5C160 90 320 97 480 99.2C640 101.3 800 98.7 880 97.3L960 96L960 0L880 0C800 0 640 0 480 0C320 0 160 0 80 0L0 0Z" fill="#c3f6da"></path><path d="M0 69L80 70.3C160 71.7 320 74.3 480 69.7C640 65 800 53 880 47L960 41L960 0L880 0C800 0 640 0 480 0C320 0 160 0 80 0L0 0Z" fill="#a9f3cb"></path></svg>